# Exported from ProBuilder
# http://www.procore3d.com/probuilder
# 10/9/2018 10:11:32 AM

mtllib ./Human.mtl
o Human

g Human
v -0.3503552 2.163458 -0.2178055
v -0.6496449 2.163458 -0.2178055
v -0.3503552 2.163458 -0.4038651
v -0.6496449 2.163458 -0.4038651
v 0 0 -0.6216707
v -1 0 -0.6216707
v 0 0 0
v -1 0 0
v 0 0 0
v -1 0 0
v -0.85518 0.9 -0.09003031
v -0.1448199 0.9 -0.09003031
v -0.85518 0.9 -0.09003031
v -1 1.556317 0
v 0 1.556317 0
v -0.1448199 0.9 -0.09003031
v -1 0 0
v -1 0 -0.6216707
v -0.85518 0.9 -0.5316404
v -0.85518 0.9 -0.09003031
v -0.85518 0.9 -0.5316404
v -1 1.556317 -0.6216707
v -1 1.556317 0
v -0.85518 0.9 -0.09003031
v -1 0 -0.6216707
v 0 0 -0.6216707
v -0.1448199 0.9 -0.5316404
v -0.85518 0.9 -0.5316404
v -0.1448199 0.9 -0.5316404
v 0 1.556317 -0.6216707
v -1 1.556317 -0.6216707
v -0.85518 0.9 -0.5316404
v 0 0 -0.6216707
v 0 0 0
v -0.1448199 0.9 -0.09003031
v -0.1448199 0.9 -0.5316404
v -0.1448199 0.9 -0.09003031
v 0 1.556317 0
v 0 1.556317 -0.6216707
v -0.1448199 0.9 -0.5316404
v 0 1.556317 0
v -1 1.556317 0
v -0.3503552 1.771972 -0.2178055
v -0.6496449 1.771972 -0.2178055
v 0 1.556317 -0.6216707
v 0 1.556317 0
v -0.3503552 1.771972 -0.4038651
v -0.3503552 1.771972 -0.2178055
v -1 1.556317 0
v -1 1.556317 -0.6216707
v -0.6496449 1.771972 -0.2178055
v -0.6496449 1.771972 -0.4038651
v -1 1.556317 -0.6216707
v 0 1.556317 -0.6216707
v -0.6496449 1.771972 -0.4038651
v -0.3503552 1.771972 -0.4038651
v -0.3503552 1.771972 -0.2178055
v -0.6496449 1.771972 -0.2178055
v -0.3503552 2.163458 -0.2178055
v -0.6496449 2.163458 -0.2178055
v -0.3503552 1.771972 -0.4038651
v -0.3503552 1.771972 -0.2178055
v -0.3503552 2.163458 -0.4038651
v -0.3503552 2.163458 -0.2178055
v -0.6496449 1.771972 -0.2178055
v -0.6496449 1.771972 -0.4038651
v -0.6496449 2.163458 -0.2178055
v -0.6496449 2.163458 -0.4038651
v -0.6496449 1.771972 -0.4038651
v -0.3503552 1.771972 -0.4038651
v -0.6496449 2.163458 -0.4038651
v -0.3503552 2.163458 -0.4038651

vn 0 1 0
vn 0 1 0
vn 0 1 0
vn 0 1 0
vn 0 -1 0
vn 0 -1 0
vn 0 -1 0
vn 0 -1 0
vn 0 0.0995369 0.9950338
vn 0 0.0995369 0.9950339
vn 0 0.0995369 0.9950338
vn 0 0.0995369 0.9950339
vn 0 -0.1359023 0.9907222
vn 0 -0.1359023 0.9907222
vn 0 -0.1359023 0.9907222
vn 0 -0.1359023 0.9907222
vn -0.9872999 0.1588675 0
vn -0.9872999 0.1588675 0
vn -0.9872999 0.1588675 0
vn -0.9872999 0.1588675 0
vn -0.9765099 -0.2154723 0
vn -0.9765099 -0.2154723 0
vn -0.9765099 -0.2154723 0
vn -0.9765099 -0.2154723 0
vn 0 0.0995369 -0.9950338
vn 0 0.0995369 -0.9950339
vn 0 0.0995369 -0.9950338
vn 0 0.0995369 -0.9950339
vn 0 -0.1359023 -0.9907223
vn 0 -0.1359023 -0.9907222
vn 0 -0.1359023 -0.9907222
vn 0 -0.1359023 -0.9907222
vn 0.9872999 0.1588675 0
vn 0.9872999 0.1588675 0
vn 0.9872999 0.1588675 0
vn 0.9872999 0.1588675 0
vn 0.9765099 -0.2154722 0
vn 0.9765099 -0.2154722 0
vn 0.9765099 -0.2154722 0
vn 0.9765099 -0.2154722 0
vn 0 0.710606 0.70359
vn 0 0.710606 0.70359
vn 0 0.7106061 0.70359
vn 0 0.710606 0.70359
vn 0.5241889 0.851602 0
vn 0.5241889 0.851602 0
vn 0.5241889 0.851602 0
vn 0.5241889 0.851602 0
vn -0.524189 0.851602 0
vn -0.5241889 0.851602 0
vn -0.5241891 0.851602 0
vn -0.524189 0.851602 0
vn 0 0.710606 -0.70359
vn 0 0.710606 -0.70359
vn 0 0.7106061 -0.7035902
vn 0 0.710606 -0.70359
vn 0 0 1
vn 0 0 1
vn 0 0 1
vn 0 0 1
vn 1 0 0
vn 1 0 0
vn 1 0 0
vn 1 0 0
vn -1 0 0
vn -1 0 0
vn -1 0 0
vn -1 0 0
vn 0 0 -1
vn 0 0 -1
vn 0 0 -1
vn 0 0 -1

vt 0.3503552 -0.2178055
vt 0.6496449 -0.2178055
vt 0.3503552 -0.4038651
vt 0.6496449 -0.4038651
vt 0 -0.6216707
vt -1 -0.6216707
vt 0 0
vt -1 0
vt 0 0
vt -1 2.215363E-11
vt -0.85518 0.9007695
vt -0.1448199 0.9007695
vt -0.85518 0.9007695
vt -1 1.556255
vt 0 1.556255
vt -0.1448199 0.9007695
vt -6.705826E-10 -0.01439199
vt -0.6216707 -0.01439199
vt -0.5316404 0.8875991
vt -0.09003031 0.8875991
vt -0.5316404 0.8875991
vt -0.6216707 1.541764
vt -6.705826E-10 1.541764
vt -0.09003031 0.8875991
vt -1 -0.005562493
vt -1.883318E-10 -0.005562493
vt -0.1448199 0.895207
vt -0.85518 0.895207
vt -0.1448199 0.895207
vt -1.883318E-10 1.550692
vt -1 1.550692
vt -0.85518 0.895207
vt -0.6216707 1.513411E-11
vt 0 0
vt -0.09003031 0.9019911
vt -0.5316404 0.9019911
vt -0.09003031 0.9019911
vt 0 1.556156
vt -0.6216707 1.556156
vt -0.5316404 0.9019911
vt 0 -1.095009
vt 1 -1.095009
vt 0.3503552 -1.401516
vt 0.6496449 -1.401516
vt 0.8158042 -0.6216707
vt 0.8158042 0
vt 1.227211 -0.4038651
vt 1.227211 -0.2178055
vt 0.03579773 0
vt 0.03579773 -0.6216707
vt -0.3756095 -0.2178055
vt -0.3756095 -0.4038651
vt 1 0.6532464
vt 0 0.6532464
vt 0.6496449 0.9597532
vt 0.3503552 0.9597532
vt -0.3503552 1.771972
vt -0.6496449 1.771972
vt -0.3503552 2.163458
vt -0.6496449 2.163458
vt 0.4038651 1.771972
vt 0.2178055 1.771972
vt 0.4038651 2.163458
vt 0.2178055 2.163458
vt -0.2178055 1.771972
vt -0.4038651 1.771972
vt -0.2178055 2.163458
vt -0.4038651 2.163458
vt 0.6496449 1.771972
vt 0.3503552 1.771972
vt 0.6496449 2.163458
vt 0.3503552 2.163458

g Human
usemtl Default_Prototype
f 3/3/3 4/4/4 2/2/2 1/1/1
f 7/7/7 8/8/8 6/6/6 5/5/5
f 12/12/12 11/11/11 10/10/10 9/9/9
f 15/15/15 14/14/14 13/13/13 16/16/16
f 20/20/20 19/19/19 18/18/18 17/17/17
f 23/23/23 22/22/22 21/21/21 24/24/24
f 26/26/26 25/25/25 28/28/28 27/27/27
f 29/29/29 32/32/32 31/31/31 30/30/30
f 34/34/34 33/33/33 36/36/36 35/35/35
f 37/37/37 40/40/40 39/39/39 38/38/38
f 43/43/43 44/44/44 42/42/42 41/41/41
f 47/47/47 48/48/48 46/46/46 45/45/45
f 51/51/51 52/52/52 50/50/50 49/49/49
f 55/55/55 56/56/56 54/54/54 53/53/53
f 59/59/59 60/60/60 58/58/58 57/57/57
f 63/63/63 64/64/64 62/62/62 61/61/61
f 67/67/67 68/68/68 66/66/66 65/65/65
f 71/71/71 72/72/72 70/70/70 69/69/69

